<svg xmlns="http://www.w3.org/2000/svg" xmlns:xlink="http://www.w3.org/1999/xlink" width="169" height="169" viewBox="0 0 169 169">
  <defs>
    <clipPath id="clip-path">
      <rect id="Rectangle" width="169" height="169" transform="translate(-0.2)" fill="#de5454"/>
    </clipPath>
  </defs>
  <g id="Google" transform="translate(0.2)">
    <g id="Mask_Group_8" data-name="Mask Group 8" clip-path="url(#clip-path)">
      <g id="Google-2" data-name="Google" transform="translate(325.8 5155)">
        <g id="Group_3" data-name="Group 3">
          <rect id="Rectangle_14" data-name="Rectangle 14" width="169" height="169" transform="translate(-326 -5155)" fill="none"/>
        </g>
        <g id="Group-13" transform="translate(4 52)">
          <path id="path2998" d="M-286.4-5136.3h-18.8v5.6h13.3c-.7,7.8-7.1,11.2-13.3,11.2a14.639,14.639,0,0,1-14.7-14.6v-.2a14.643,14.643,0,0,1,4.1-10.5,14.809,14.809,0,0,1,10.3-4.5h.3a14.644,14.644,0,0,1,10.1,4l3.9-4a19.776,19.776,0,0,0-14.2-5.6,20.617,20.617,0,0,0-17.9,10.3,20.453,20.453,0,0,0,.2,20.7,20.369,20.369,0,0,0,18.1,10c11,0,19-7.5,19-18.6a15.284,15.284,0,0,0-.4-3.8Z" fill="#587fc0"/>
          <path id="path3000" d="M-271.3-5140a13.248,13.248,0,0,0-13.7,12.6,13.081,13.081,0,0,0,12.8,13.4h.9a12.856,12.856,0,0,0,13.2-12.5v-.4a12.76,12.76,0,0,0-12.6-13,1.267,1.267,0,0,0-.6-.1Zm0,5.1a7.489,7.489,0,0,1,7.4,7.6v.2a7.111,7.111,0,0,1-3.2,6.8,7.644,7.644,0,0,1-7.6.6,7.139,7.139,0,0,1-4.2-6.2v-1.2a7.29,7.29,0,0,1,2-5.4,7.805,7.805,0,0,1,5.3-2.5h.3Z" fill="#db3436"/>
          <path id="path3005" d="M-242.3-5140a13.248,13.248,0,0,0-13.7,12.6,13.081,13.081,0,0,0,12.8,13.4h.9a12.856,12.856,0,0,0,13.2-12.5v-.4a12.907,12.907,0,0,0-12.6-13.1Zm0,5.1a7.641,7.641,0,0,1,7.5,7.6v.2a7.111,7.111,0,0,1-3.2,6.8,7.664,7.664,0,0,1-7.6.6,7.139,7.139,0,0,1-4.2-6.2v-1.2a7.58,7.58,0,0,1,7.2-7.9h.3Z" fill="#f3c217"/>
          <path id="path3007" d="M-213.5-5140a13.167,13.167,0,0,0-12.5,13.1,13.169,13.169,0,0,0,12.4,13.2,8.447,8.447,0,0,0,7.2-3.2v2.6c0,4.5-2.7,7.2-6.9,7.2a7.144,7.144,0,0,1-6.6-4.7l-5.1,2.1a12.517,12.517,0,0,0,11.7,7.7c7,0,12.3-4.4,12.3-13.7v-23.6h-5.5v2.2a9.287,9.287,0,0,0-7-2.9Zm.5,5.1c3.4,0,7,2.9,7,8,0,5-3.5,8-7.1,8a7.361,7.361,0,0,1-5.2-2.3,7.4,7.4,0,0,1-2.1-5.3v-.3a7.871,7.871,0,0,1,1.9-5.5,7.384,7.384,0,0,1,5.2-2.5l.3-.1Z" fill="#587fc0"/>
          <path id="path3011" d="M-176.8-5140c-6.6,0-12.2,5.2-12.2,13a12.637,12.637,0,0,0,12.3,13h.6a13.022,13.022,0,0,0,10.9-5.7l-4.5-3a7.347,7.347,0,0,1-6.3,3.6,6.722,6.722,0,0,1-6.3-3.9l17.4-7.2-.9-2.1a12.023,12.023,0,0,0-11-7.7Zm.2,4.9a5.2,5.2,0,0,1,4.8,2.8l-11.7,4.9a7.07,7.07,0,0,1,1.8-5.2,7.563,7.563,0,0,1,5.1-2.5Z" fill="#db3436"/>
          <path id="path3015" d="M-198-5115h6v-39h-6Z" fill="#45b754"/>
        </g>
      </g>
    </g>
  </g>
</svg>
