<svg xmlns="http://www.w3.org/2000/svg" xmlns:xlink="http://www.w3.org/1999/xlink" width="169" height="169" viewBox="0 0 169 169">
  <defs>
    <clipPath id="clip-path">
      <rect id="Rectangle" width="169" height="169" transform="translate(0.4)" fill="#de5454"/>
    </clipPath>
  </defs>
  <g id="intel" transform="translate(-0.4)">
    <g id="Mask_Group_10" data-name="Mask Group 10" clip-path="url(#clip-path)">
      <g id="Page-1" transform="translate(0.2)">
        <g id="Government-Solutions-Desktop" transform="translate(-739 -5155)">
          <g id="Intel-2" data-name="Intel" transform="translate(739.2 5155)">
            <rect id="Rectangle-2" data-name="Rectangle" width="169" height="169" fill="none"/>
            <g id="Group-15" transform="translate(25 39)">
              <path id="Shape" d="M56.982,70.428c-23.725,2.2-48.434-1.246-51.913-19.737a30.468,30.468,0,0,1,8-24.812V22.647C3.114,31.365-2.185,42.384.855,55.388c3.954,16.7,25.16,26.154,57.562,23.013A117.138,117.138,0,0,0,99.535,66.65V57.531A113.216,113.216,0,0,1,56.784,70.366m62.7-47.933C113.866-4.973,60.518-6.71,26.28,14.172v2.312c34.182-17.6,82.886-17.538,87.315,7.731,1.5,8.357-3.237,17.075-11.637,22.072v6.553c10.168-3.716,20.523-15.7,17.512-30.48" fill="#167ec2"/>
              <path id="Path" d="M96.983,18h-5.97V45.542a6.128,6.128,0,0,0,1.472,4.4A5.95,5.95,0,0,0,96.6,52H97Z" fill="#167ec2"/>
              <path id="Path-2" data-name="Path" d="M23,28H17.015V46.374A6.136,6.136,0,0,0,22.546,53h.437Z" fill="#167ec2"/>
              <rect id="Rectangle-3" data-name="Rectangle" width="6" height="6" transform="translate(17 19)" fill="#167ec2"/>
              <path id="Path-3" data-name="Path" d="M60.358,52.973a6.863,6.863,0,0,1-4.942-1.514,6.581,6.581,0,0,1-2.4-4.493,7.043,7.043,0,0,1,0-.921V22h6.24v6.629H64v5.007H59.255V45.672a1.933,1.933,0,0,0,1.651,2.193,1.9,1.9,0,0,0,.537,0H64V53H60.381" fill="#167ec2"/>
              <path id="Shape-2" data-name="Shape" d="M72.108,42.465a5.13,5.13,0,0,0,4.824,5.429h.7a7.1,7.1,0,0,0,5.708-2.4l3.95,3.64a12.476,12.476,0,0,1-9.63,3.853C71.708,52.986,66,49.8,66,40.462,66,32.487,70.995,28,77.537,28S88,33.278,88,40.132v2.333H72.108m5.063-9.327A4.793,4.793,0,0,0,72.7,35.684a6.216,6.216,0,0,0-.571,2.636h9.6c0-2.636-1.324-5.154-4.532-5.154" fill="#167ec2"/>
              <path id="Path-4" data-name="Path" d="M40.237,33.905c1.817,0,2.586.87,2.586,2.306V52.939H48.98V36.156a6.711,6.711,0,0,0-6.237-7.135,7.131,7.131,0,0,0-1.088,0H29V53h6.157V33.905Z" fill="#167ec2"/>
              <path id="Shape-3" data-name="Shape" d="M103.5,23a2.5,2.5,0,1,1,2.5-2.517h0a2.5,2.5,0,0,1-2.5,2.5Zm0-4.583a2.066,2.066,0,1,0,2.1,2.066,2.1,2.1,0,0,0-2.1-2.066Zm1.233,3.607h-.445l-.617-1.079h-.279v1.079h-.434V19.216c0-.154,0-.217.188-.245h.771c.77,0,1.233.217,1.233.959h0a.766.766,0,0,1-.571.8l.65,1.142h0Zm-.126-2.283c0-.308-.182-.405-.57-.405h-.406v1.022h.406c.4,0,.57,0,.57-.434Z" fill="#167ec2"/>
            </g>
          </g>
        </g>
      </g>
    </g>
  </g>
</svg>
