<svg xmlns="http://www.w3.org/2000/svg" xmlns:xlink="http://www.w3.org/1999/xlink" width="169" height="169" viewBox="0 0 169 169">
  <defs>
    <clipPath id="clip-path">
      <rect id="Rectangle" width="169" height="169" transform="translate(742 5386)" fill="#fff"/>
    </clipPath>
  </defs>
  <g id="Microsoft" transform="translate(-742 -5386)" clip-path="url(#clip-path)">
    <g id="microsoft-2" data-name="microsoft" transform="translate(742.59 5385.89)" style="isolation: isolate">
      <path id="Path_165" data-name="Path 165" d="M5.41,68.11H21.48V84.18H5.41V68.11Z" fill="#f25022"/>
      <path id="Path_166" data-name="Path 166" d="M23.12,68.11H39.19V84.18H23.12q0-8.04,0-16.07Z" fill="#80ba01"/>
      <path id="Path_167" data-name="Path 167" d="M150.31,74.23a6.312,6.312,0,0,1,5.06-.59c.01.99,0,1.99.01,2.98a3.274,3.274,0,0,0-2.56-.23,2.022,2.022,0,0,0-1.16,1.62,22.572,22.572,0,0,0-.06,2.6h5.08c.01-1.1-.01-2.2.01-3.3,1.15-.33,2.29-.7,3.44-1.04.01,1.45-.01,2.9.01,4.35,1.15-.02,2.29,0,3.44-.01v2.82c-1.15-.05-2.3-.01-3.45-.02v4.87c.02.9-.05,1.8.06,2.7a1.766,1.766,0,0,0,.75,1.39,2.593,2.593,0,0,0,2.64-.25v2.85a6.89,6.89,0,0,1-3.18.49,3.9,3.9,0,0,1-2.74-1.26,5.162,5.162,0,0,1-.98-3.32c-.01-2.49,0-4.98,0-7.47h-5.09V95.13h-3.48V83.41c-.81-.02-1.61,0-2.42-.01,0-.93.01-1.86,0-2.78.8-.02,1.6-.01,2.41,0a14.779,14.779,0,0,1,.24-3.7,4.875,4.875,0,0,1,1.97-2.69Z" fill="#777"/>
      <path id="Path_168" data-name="Path 168" d="M75.91,74.44a2.1,2.1,0,0,1,1.92.68,2,2,0,0,1,.24,2.26,2.162,2.162,0,0,1-2.31.97,1.963,1.963,0,0,1-1.61-1.94,2,2,0,0,1,1.76-1.97Z" fill="#777"/>
      <path id="Path_169" data-name="Path 169" d="M49.27,74.87h5.05c1.57,3.99,3.16,7.99,4.73,11.98.4,1,.78,2.01,1.2,3,2.02-4.99,4.08-9.97,6.08-14.97,1.62-.03,3.24-.01,4.86-.01V95.13c-1.17,0-2.34.01-3.51-.01.01-4.98,0-9.97.01-14.95,0-.22-.01-.45-.02-.67a2.016,2.016,0,0,0-.18.32c-2.01,5.1-4.06,10.19-6.05,15.3-.83.03-1.66,0-2.5.02-2.07-5.1-4.12-10.22-6.18-15.32a3.071,3.071,0,0,0-.17-.31c-.04,2.18-.01,4.37-.02,6.55v9.07H49.26q.015-10.125.01-20.26Z" fill="#777"/>
      <path id="Path_170" data-name="Path 170" d="M85.47,80.59a9.425,9.425,0,0,1,5.16.02,4.306,4.306,0,0,1,.99.41c-.02,1.11,0,2.21-.01,3.32a5.5,5.5,0,0,0-3.97-1.22,4.1,4.1,0,0,0-2.89,1.6,5.6,5.6,0,0,0-.92,4.02,4.376,4.376,0,0,0,1.4,2.89,4.423,4.423,0,0,0,3.25.97,6.653,6.653,0,0,0,3.12-1.28c.01,1.05,0,2.1.01,3.15a8.4,8.4,0,0,1-4.75.98,7.083,7.083,0,0,1-4.53-1.89,7.207,7.207,0,0,1-2.1-4.86,8.88,8.88,0,0,1,1.37-5.39,7.13,7.13,0,0,1,3.87-2.72Z" fill="#777"/>
      <path id="Path_171" data-name="Path 171" d="M123.43,80.37a9.177,9.177,0,0,1,4.81.5v3.19a6.161,6.161,0,0,0-3.65-1.08,1.879,1.879,0,0,0-1.66.92,1.507,1.507,0,0,0,.5,1.78c.99.66,2.16.94,3.18,1.53a4.6,4.6,0,0,1,1.99,1.89,4.24,4.24,0,0,1-.9,4.89,6.659,6.659,0,0,1-4.84,1.47,10.441,10.441,0,0,1-3.53-.81c0-1.12-.01-2.24.01-3.36a7.588,7.588,0,0,0,3.15,1.36,4.023,4.023,0,0,0,2.4-.22,1.374,1.374,0,0,0,.41-1.97,4.088,4.088,0,0,0-1.52-.99,14.66,14.66,0,0,1-3-1.54,3.623,3.623,0,0,1-1.3-1.97,4.434,4.434,0,0,1,.48-3.47,5.3,5.3,0,0,1,3.47-2.12Z" fill="#777"/>
      <path id="Path_172" data-name="Path 172" d="M99.4,80.83a3.923,3.923,0,0,1,3.23-.27v3.48a3.738,3.738,0,0,0-2.35-.55,2.861,2.861,0,0,0-2.17,1.74,6.541,6.541,0,0,0-.5,2.97v6.95H94.18V80.63c1.14-.01,2.29-.01,3.43,0v2.49a4.3,4.3,0,0,1,1.79-2.29Z" fill="#777"/>
      <path id="Path_173" data-name="Path 173" d="M74.46,80.61c1.15,0,2.31-.02,3.46.01-.01,4.84,0,9.68-.01,14.51H74.46V80.61Z" fill="#777"/>
      <path id="Path_174" data-name="Path 174" d="M117.03,84a6.142,6.142,0,0,0-3.04-3.07,9.281,9.281,0,0,0-4.97-.59,6.959,6.959,0,0,0-4.57,2.44,7.684,7.684,0,0,0-1.6,4.44,8.322,8.322,0,0,0,1.27,5.42,6.593,6.593,0,0,0,4.01,2.62,9.965,9.965,0,0,0,4.07,0,6.759,6.759,0,0,0,3.99-2.46,7.7,7.7,0,0,0,1.53-4.23A9.535,9.535,0,0,0,117.03,84Zm-3.36,6.67a3.162,3.162,0,0,1-1.71,1.68,4.717,4.717,0,0,1-2.83.12,3.494,3.494,0,0,1-2.18-1.8,6.771,6.771,0,0,1-.53-3.64A4.646,4.646,0,0,1,107.76,84a3.592,3.592,0,0,1,2.29-.9,3.747,3.747,0,0,1,2.91.99,4.717,4.717,0,0,1,1.2,3.03A7.674,7.674,0,0,1,113.67,90.67Z" fill="#777"/>
      <path id="Path_175" data-name="Path 175" d="M144.86,84.42a6.183,6.183,0,0,0-2.98-3.38,8.95,8.95,0,0,0-5.16-.7,7.183,7.183,0,0,0-3.84,1.65,7.09,7.09,0,0,0-2.29,4.46,9.658,9.658,0,0,0,.55,5.05,6.45,6.45,0,0,0,3.53,3.43,9.258,9.258,0,0,0,4.89.41,6.805,6.805,0,0,0,4.27-2.5,7.9,7.9,0,0,0,1.57-4.95A9.279,9.279,0,0,0,144.86,84.42Zm-3.14,4.92a4.5,4.5,0,0,1-.9,2.13,3.221,3.221,0,0,1-2.03,1.09,4.7,4.7,0,0,1-2.49-.27,3.513,3.513,0,0,1-1.83-1.92,6.949,6.949,0,0,1-.41-3.16,5.026,5.026,0,0,1,1.05-2.89,3.585,3.585,0,0,1,2.54-1.22,3.8,3.8,0,0,1,2.78.82,3.988,3.988,0,0,1,1.26,2.31A8.786,8.786,0,0,1,141.72,89.34Z" fill="#777"/>
      <path id="Path_176" data-name="Path 176" d="M5.41,85.82H21.48v16.07H5.41V85.82Z" fill="#02a4ef"/>
      <path id="Path_177" data-name="Path 177" d="M23.12,85.82H39.19v16.07H23.12V85.82Z" fill="#ffb902"/>
    </g>
  </g>
</svg>
