<svg xmlns="http://www.w3.org/2000/svg" xmlns:xlink="http://www.w3.org/1999/xlink" width="169" height="169" viewBox="0 0 169 169">
  <defs>
    <clipPath id="clip-path">
      <rect id="Rectangle" width="169" height="169" transform="translate(0.2)" fill="#de5454"/>
    </clipPath>
  </defs>
  <g id="Nasa" transform="translate(-0.2)">
    <g id="Mask_Group_5" data-name="Mask Group 5" clip-path="url(#clip-path)">
      <g id="nasa-2" data-name="nasa" transform="translate(0.2)">
        <rect id="Rectangle_12" data-name="Rectangle 12" width="169" height="169" fill="none"/>
        <g id="Layer_1-2" data-name="Layer 1-2">
          <path id="Path_16" data-name="Path 16" d="M78.83,145.31A60.83,60.83,0,1,0,18,84.483v.007a60.83,60.83,0,0,0,60.81,60.83h0Z" fill="#2e3192" fill-rule="evenodd"/>
          <path id="Path_17" data-name="Path 17" d="M78.2,107c-1.26-.28-4.83-3.49-4.83-3.49l-1.1,1.08s2.58,3,4.12,5.1l1.81-2.65Z" fill="#fff" fill-rule="evenodd"/>
          <path id="Path_18" data-name="Path 18" d="M61.58,119.4a.72.72,0,0,0,.72-.7h0a.72.72,0,1,0-.73.71Z" fill="#fff" fill-rule="evenodd"/>
          <path id="Path_19" data-name="Path 19" d="M62.25,125a.559.559,0,1,0-.13,0A.28.28,0,0,0,62.25,125Z" fill="#fff" fill-rule="evenodd"/>
          <path id="Path_20" data-name="Path 20" d="M87.43,119.69a.5.5,0,0,0,.5-.5.49.49,0,0,0-.49-.49h0a.49.49,0,0,0-.49.49h0a.5.5,0,0,0,.48.5Z" fill="#fff" fill-rule="evenodd"/>
          <path id="Path_21" data-name="Path 21" d="M104.48,109.27a.35.35,0,0,0,.35-.35h0a.35.35,0,0,0-.35-.34h0a.34.34,0,0,0-.34.34.35.35,0,0,0,.34.35Z" fill="#fff" fill-rule="evenodd"/>
          <path id="Path_22" data-name="Path 22" d="M105,116a.34.34,0,0,0,.35-.34.35.35,0,1,0-.69,0,.34.34,0,0,0,.34.34Z" fill="#fff" fill-rule="evenodd"/>
          <path id="Path_23" data-name="Path 23" d="M108.17,128.86a.72.72,0,1,0-.72-.71h0a.71.71,0,0,0,.72.71Z" fill="#fff" fill-rule="evenodd"/>
          <path id="Path_24" data-name="Path 24" d="M108.87,106.42a.74.74,0,1,0-.74-.74h0a.74.74,0,0,0,.74.74Z" fill="#fff" fill-rule="evenodd"/>
          <path id="Path_25" data-name="Path 25" d="M109.11,110.57a.37.37,0,0,0,.37-.37h0a.37.37,0,0,0-.36-.37h0a.37.37,0,0,0-.37.37h0a.37.37,0,0,0,.36.37Z" fill="#fff" fill-rule="evenodd"/>
          <path id="Path_26" data-name="Path 26" d="M116,102.68a.37.37,0,1,0-.37-.37.36.36,0,0,0,.37.37Z" fill="#fff" fill-rule="evenodd"/>
          <path id="Path_27" data-name="Path 27" d="M122.78,110.44a.48.48,0,0,0,.48-.47.49.49,0,0,0-.48-.48.48.48,0,0,0-.47.48h0a.47.47,0,0,0,.46.46Z" fill="#fff" fill-rule="evenodd"/>
          <path id="Path_28" data-name="Path 28" d="M125.82,109a.62.62,0,1,0-.62-.62.63.63,0,0,0,.62.62Z" fill="#fff" fill-rule="evenodd"/>
          <path id="Path_29" data-name="Path 29" d="M117.15,115.5a.59.59,0,0,0,.6-.59.6.6,0,0,0-.6-.6.59.59,0,0,0-.59.6h0a.58.58,0,0,0,.58.58Z" fill="#fff" fill-rule="evenodd"/>
          <path id="Path_30" data-name="Path 30" d="M123.35,118.34A.32.32,0,1,0,123,118h0a.32.32,0,0,0,.35.34Z" fill="#fff" fill-rule="evenodd"/>
          <path id="Path_31" data-name="Path 31" d="M83.77,39a.74.74,0,1,0-.74-.74.74.74,0,0,0,.74.74Z" fill="#fff" fill-rule="evenodd"/>
          <path id="Path_32" data-name="Path 32" d="M80.84,31.22a.42.42,0,0,0,.43-.41.43.43,0,1,0-.85,0h0a.41.41,0,0,0,.41.42Z" fill="#fff" fill-rule="evenodd"/>
          <path id="Path_33" data-name="Path 33" d="M80.15,40.79a.25.25,0,1,0-.25-.25A.25.25,0,0,0,80.15,40.79Z" fill="#fff" fill-rule="evenodd"/>
          <path id="Path_34" data-name="Path 34" d="M68.55,41.92a.53.53,0,0,0,.55-.54.55.55,0,0,0-1.09,0h0a.53.53,0,0,0,.53.54Z" fill="#fff" fill-rule="evenodd"/>
          <path id="Path_35" data-name="Path 35" d="M67.56,40.67a.25.25,0,1,0-.25-.25A.25.25,0,0,0,67.56,40.67Z" fill="#fff" fill-rule="evenodd"/>
          <path id="Path_36" data-name="Path 36" d="M91.57,51.76a.52.52,0,0,0,.53-.52.53.53,0,1,0-1,0h0a.52.52,0,0,0,.52.52Z" fill="#fff" fill-rule="evenodd"/>
          <path id="Path_37" data-name="Path 37" d="M97.89,82.1S107,84.91,104,92.78c0,0-4,8-15.77,4.12l-2.42,2.16-.08-7.62L89.13,94s7.89,2.14,8-2.38c0,0-.4-1.67-6.43-3.52,0,0-7.06-2.16-5.45-8.38,0,0,1.12-9.65,15.12-5.76l2.41-1.33v7.4l-3-3s-6.31-2-7.23,1c-1,3.36,3.08,3.13,5.38,4Z" fill="#fff" fill-rule="evenodd"/>
          <path id="Path_38" data-name="Path 38" d="M111.61,73.52h10.54l8.52,20.5,2.79,2.73H119.08l2.3-2.31-1.19-3.08h-7.74l-.91,3.22,1.61,2.17H106.3l2.34-2.34L114.3,76.4l-2.69-2.88Z" fill="#fff" fill-rule="evenodd"/>
          <path id="Path_39" data-name="Path 39" d="M119.15,88.16l-3.29-7.96-2.5,7.96Z" fill="#2e3192" fill-rule="evenodd"/>
          <path id="Path_40" data-name="Path 40" d="M76.94,37.35a.74.74,0,1,0-.74-.74h0a.74.74,0,0,0,.74.74Z" fill="#fff" fill-rule="evenodd"/>
          <path id="Path_41" data-name="Path 41" d="M58,53.79a.5.5,0,1,0-.53-.49h0a.51.51,0,0,0,.53.49Z" fill="#fff" fill-rule="evenodd"/>
          <path id="Path_42" data-name="Path 42" d="M59.54,56.41a.5.5,0,1,0-.53-.47h0a.52.52,0,0,0,.52.52Z" fill="#fff" fill-rule="evenodd"/>
          <path id="Path_43" data-name="Path 43" d="M64.07,62.34a.24.24,0,0,0,.24-.24h0a.23.23,0,0,0-.23-.24h0a.23.23,0,0,0-.25.23h0A.25.25,0,0,0,64.07,62.34Z" fill="#fff" fill-rule="evenodd"/>
          <path id="Path_44" data-name="Path 44" d="M69.83,42.35a.24.24,0,0,0,.25-.23h0a.25.25,0,1,0-.5,0,.24.24,0,0,0,.24.24Z" fill="#fff" fill-rule="evenodd"/>
          <path id="Path_45" data-name="Path 45" d="M69.13,45.32a.42.42,0,1,0-.42-.42h0a.42.42,0,0,0,.42.42Z" fill="#fff" fill-rule="evenodd"/>
          <path id="Path_46" data-name="Path 46" d="M77.86,42.35a.42.42,0,1,0-.42-.42h0a.42.42,0,0,0,.42.42Z" fill="#fff" fill-rule="evenodd"/>
          <path id="Path_47" data-name="Path 47" d="M83.18,45.49a.425.425,0,1,0,.02-.85.42.42,0,0,0-.43.42h0a.41.41,0,0,0,.41.42Z" fill="#fff" fill-rule="evenodd"/>
          <path id="Path_48" data-name="Path 48" d="M118.89,119a.925.925,0,1,0-.93-.92h0a.93.93,0,0,0,.93.92Z" fill="#fff" fill-rule="evenodd"/>
          <path id="Path_49" data-name="Path 49" d="M118.33,117.36l.57-1.58.5,1.56-1.07.02Z" fill="#fff" fill-rule="evenodd"/>
          <path id="Path_50" data-name="Path 50" d="M118.33,118.82l.57,1.57.5-1.56-1.07-.01Z" fill="#fff" fill-rule="evenodd"/>
          <path id="Path_51" data-name="Path 51" d="M118.13,118.69l-1.57-.56,1.56-.51.01,1.07Z" fill="#fff" fill-rule="evenodd"/>
          <path id="Path_52" data-name="Path 52" d="M119.62,118.69l1.57-.56-1.55-.51-.02,1.07Z" fill="#fff" fill-rule="evenodd"/>
          <path id="Path_53" data-name="Path 53" d="M117.22,106.23a.6.6,0,1,0,0-1.19.59.59,0,0,0-.6.59h0a.6.6,0,0,0,.6.6Z" fill="#fff" fill-rule="evenodd"/>
          <path id="Path_54" data-name="Path 54" d="M98.11,130.41a.61.61,0,0,0,.6-.59.59.59,0,0,0-.59-.6.58.58,0,0,0-.6.58h0A.6.6,0,0,0,98.11,130.41Z" fill="#fff" fill-rule="evenodd"/>
          <path id="Path_55" data-name="Path 55" d="M76.13,123.92a.59.59,0,0,0,.6-.59.6.6,0,0,0-.6-.6.59.59,0,0,0-.59.6.58.58,0,0,0,.59.59Z" fill="#fff" fill-rule="evenodd"/>
          <path id="Path_56" data-name="Path 56" d="M55.44,124.12a.563.563,0,1,0-.6-.6h0a.59.59,0,0,0,.59.59Z" fill="#fff" fill-rule="evenodd"/>
          <path id="Path_57" data-name="Path 57" d="M57.79,110.57a.39.39,0,0,0,.4-.39.41.41,0,0,0-.81,0,.39.39,0,0,0,.4.39h0Z" fill="#fff" fill-rule="evenodd"/>
          <path id="Path_58" data-name="Path 58" d="M50.72,115.45a.39.39,0,1,0-.39-.39.39.39,0,0,0,.39.39Z" fill="#fff" fill-rule="evenodd"/>
          <path id="Path_59" data-name="Path 59" d="M59.24,99.31a.38.38,0,0,0,.39-.39.39.39,0,0,0-.78,0h0a.38.38,0,0,0,.39.39Z" fill="#fff" fill-rule="evenodd"/>
          <path id="Path_60" data-name="Path 60" d="M34.84,110.74a.4.4,0,1,0-.4-.39h0a.4.4,0,0,0,.4.39Z" fill="#fff" fill-rule="evenodd"/>
          <path id="Path_61" data-name="Path 61" d="M41.38,111.35a.39.39,0,0,0,.4-.39.4.4,0,1,0-.79,0h0a.39.39,0,0,0,.39.39Z" fill="#fff" fill-rule="evenodd"/>
          <path id="Path_62" data-name="Path 62" d="M40.16,114.55a.72.72,0,1,0-.71-.71h0A.71.71,0,0,0,40.16,114.55Z" fill="#fff" fill-rule="evenodd"/>
          <path id="Path_63" data-name="Path 63" d="M42.43,117.26a.72.72,0,1,0-.72-.71h0a.71.71,0,0,0,.72.71Z" fill="#fff" fill-rule="evenodd"/>
          <path id="Path_64" data-name="Path 64" d="M133.38,50.13c10.93-9.05,20-16.8,23.12-22.68,0,0-6.95,23.25-39.41,47.55,0,0-49.57,33.82-63.12,43.32a122.93,122.93,0,0,0-23.11,22.52l-.24-2.24s8-11.68,26.05-24.46c15.91-11.25,21.87-15,21.87-15s37.81-23.66,45.63-34c0,0-27.12,15.57-73.9,24.61,0,0-21.64,5.45-35.78,14.28h-2s12.35-10.46,41-18.63c0,0,48.44-14.38,79.92-35.28Z" fill="#ed1c24" fill-rule="evenodd"/>
          <path id="Path_65" data-name="Path 65" d="M28.8,73.6h9.78l8.38,14.1V75.34L45.42,73.6h6.15l-1.54,2.37V94.33l2.24,2.45H42.49L34.13,82.31V94.42l1.8,2.39h-7.4l2.09-2.54V76.4L28.8,73.6Z" fill="#fff" fill-rule="evenodd"/>
          <path id="Path_66" data-name="Path 66" d="M61.38,73.56h10.8l7.73,20.52,2.79,2.71H68.84l2.31-2.3-1.19-3.07H62.22l-.48,3.21,1.61,2.16H56.07l2.6-2.34,5.4-18.01-2.69-2.88Z" fill="#fff" fill-rule="evenodd"/>
          <path id="Path_67" data-name="Path 67" d="M68.92,88.21l-3.29-7.96-2.5,7.96Z" fill="#2e3192" fill-rule="evenodd"/>
          <path id="Path_68" data-name="Path 68" d="M65.25,81.59l.83-.3,1.83,4.49-4.36,1.1,1.7-5.29Z" fill="#ed1c24" fill-rule="evenodd"/>
          <path id="Path_69" data-name="Path 69" d="M85.49,83.17s-2.41-6.64,4.89-9.08c0,0,3.49-2.79,10.82,0l1.61-1.43v7.4S99.46,76.53,97,76.18s-4.89.35-4.54,3.84l-7,3.15Z" fill="#fff" fill-rule="evenodd"/>
          <path id="Path_70" data-name="Path 70" d="M91,118.05a27.65,27.65,0,0,0,10.09,3.86c2.89.4,5.39,0,7.24-1.44a6.419,6.419,0,0,0,.69-.58c8.69-8.29-1.67-35.64-17.83-52.57h0s-1.49-1.73-2.52-2.76l.55-.53c1,1,2.41,2.61,2.54,2.77h0c16.4,17.2,26.76,45.1,17.79,53.66a7.791,7.791,0,0,1-.76.64c-2,1.52-4.7,2-7.79,1.61a28.68,28.68,0,0,1-10.41-4l.39-.66Zm.75-51.23" fill="#fff"/>
          <path id="Path_71" data-name="Path 71" d="M90.41,66.5l-.36-.42h0l-.37-.43c-7.79-9-14.55-14.53-20.26-17.4-6.64-3.34-11.79-3.1-15.5-.74-3.21,2-4.39,7.83-2.25,16.74,1.81,7.54,6,17.22,13.43,28.64h0s6.82,9.41,7.56,10l-.53.69c-.83-.7-7.72-10.19-7.74-10.19h0C56.9,81.81,52.65,72,50.83,64.4c-2.25-9.32-.86-15.47,2.63-17.69,3.92-2.41,9.4-2.74,16.36.8,5.8,2.91,12.65,8.48,20.52,17.61l.37.43h0l.37.43-.67.56Z" fill="#fff"/>
          <path id="Path_72" data-name="Path 72" d="M76.77,110.15c1.69,1.44,3.56,2.06,4.16,1.36s-.28-2.42-2-3.91-3.56-2.07-4.16-1.36S75.07,108.65,76.77,110.15Z" fill="#fff" fill-rule="evenodd"/>
          <path id="Path_73" data-name="Path 73" d="M92.71,39.2a1.18,1.18,0,1,1,0-.04Z" fill="#fff" fill-rule="evenodd"/>
          <path id="Path_74" data-name="Path 74" d="M92.02,37.09l.7-4.06.63,4.04-1.33.02Z" fill="#fff" fill-rule="evenodd"/>
          <path id="Path_75" data-name="Path 75" d="M92.02,38.91l.7,4.06.63-4.03-1.33-.03Z" fill="#fff" fill-rule="evenodd"/>
          <path id="Path_76" data-name="Path 76" d="M91.77,38.74l-4.23-.69,4.21-.63.02,1.32Z" fill="#fff" fill-rule="evenodd"/>
          <path id="Path_77" data-name="Path 77" d="M93.63,38.74l4.4-.69-4.38-.63-.02,1.32Z" fill="#fff" fill-rule="evenodd"/>
          <path id="Path_78" data-name="Path 78" d="M64.38,55.51a1.16,1.16,0,1,0-1.12-1.2h0a1.16,1.16,0,0,0,1.15,1.15h0Z" fill="#fff" fill-rule="evenodd"/>
          <path id="Path_79" data-name="Path 79" d="M63.69,53.41l.7-4.06.63,4.03-1.33.03Z" fill="#fff" fill-rule="evenodd"/>
          <path id="Path_80" data-name="Path 80" d="M63.69,55.23l.7,4.06.63-4.04-1.33-.02Z" fill="#fff" fill-rule="evenodd"/>
          <path id="Path_81" data-name="Path 81" d="M63.44,55.06l-4.23-.69,4.2-.64.03,1.33Z" fill="#fff" fill-rule="evenodd"/>
          <path id="Path_82" data-name="Path 82" d="M65.3,55.06l4.4-.69-4.39-.64-.01,1.33Z" fill="#fff" fill-rule="evenodd"/>
          <path id="Path_83" data-name="Path 83" d="M58,132.23a1.164,1.164,0,1,0-1.16-1.17h0A1.15,1.15,0,0,0,58,132.23Z" fill="#fff" fill-rule="evenodd"/>
          <path id="Path_84" data-name="Path 84" d="M57.28,130.13l.7-4.07.64,4.04-1.34.03Z" fill="#fff" fill-rule="evenodd"/>
          <path id="Path_85" data-name="Path 85" d="M57.28,131.94l.7,4.06.64-4.03-1.34-.03Z" fill="#fff" fill-rule="evenodd"/>
          <path id="Path_86" data-name="Path 86" d="M57.04,131.78l-4.24-.7,4.21-.63.03,1.33Z" fill="#fff" fill-rule="evenodd"/>
          <path id="Path_87" data-name="Path 87" d="M58.89,131.78l4.41-.7-4.39-.63-.02,1.33Z" fill="#fff" fill-rule="evenodd"/>
          <path id="Path_88" data-name="Path 88" d="M124.47,106a1.16,1.16,0,1,0-1.15-1.16h0a1.15,1.15,0,0,0,1.14,1.15Z" fill="#fff" fill-rule="evenodd"/>
          <path id="Path_89" data-name="Path 89" d="M123.79,103.94l.7-4.06.62,4.04-1.32.02Z" fill="#fff" fill-rule="evenodd"/>
          <path id="Path_90" data-name="Path 90" d="M123.79,105.76l.7,4.06.62-4.03-1.32-.03Z" fill="#fff" fill-rule="evenodd"/>
          <path id="Path_91" data-name="Path 91" d="M123.54,105.6l-4.23-.7,4.2-.63.03,1.33Z" fill="#fff" fill-rule="evenodd"/>
          <path id="Path_92" data-name="Path 92" d="M125.39,105.6l4.41-.7-4.39-.63-.02,1.33Z" fill="#fff" fill-rule="evenodd"/>
        </g>
      </g>
    </g>
  </g>
</svg>
