<svg xmlns="http://www.w3.org/2000/svg" xmlns:xlink="http://www.w3.org/1999/xlink" width="169" height="169" viewBox="0 0 169 169">
  <defs>
    <clipPath id="clip-path">
      <rect id="Rectangle" width="169" height="169" transform="translate(526 5378)" fill="none"/>
    </clipPath>
    <clipPath id="clip-path-2">
      <rect id="Rectangle-2" data-name="Rectangle" width="120.989" height="121" fill="#de5454"/>
    </clipPath>
    <radialGradient id="radial-gradient" cx="0.305" cy="0.369" r="1.077" gradientTransform="translate(0.202) scale(0.596 1)" gradientUnits="objectBoundingBox">
      <stop offset="0" stop-color="#2aa4d9" stop-opacity="0.851"/>
      <stop offset="1" stop-color="#1375b7"/>
    </radialGradient>
  </defs>
  <g id="Pfizer" transform="translate(-526 -5378)" clip-path="url(#clip-path)">
    <g id="UAS" transform="translate(550.006 5407)">
      <g id="Mask_Group_17" data-name="Mask Group 17" transform="translate(0)" clip-path="url(#clip-path-2)">
        <g id="Pfizer-2" data-name="Pfizer" transform="translate(-0.006 24.415)">
          <path id="Path_139" data-name="Path 139" d="M38.129,79.536c-.513,0-12.262-2.489-20.5-10.836C3.9,54.8,11.958,38.684,24.3,28.83c32.605-26.043,73.14-19.35,83.93-15.4,39.3,14.382,20.251,43.147,4.334,53C81.641,85.558,56.309,81.864,44.785,80.808Z" transform="translate(-10.452 -9.63)" fill="#fff"/>
          <path id="Path_140" data-name="Path 140" d="M112.56,66.425c15.918-9.85,34.97-38.615-4.334-53C97.435,9.48,56.9,2.787,24.3,28.829,11.959,38.683,3.906,54.8,17.627,68.7c8.242,8.349,19.991,10.836,20.5,10.836S48.792,40.684,48.792,40.684s2.1-9,4.511-13.394a13.362,13.362,0,0,1,8.816-6.339,17.333,17.333,0,0,1,6.714.486,6.027,6.027,0,0,1,3.947,3.6c.948,3.86-1.847,5.506-3.69,5.6A3.589,3.589,0,0,1,65.5,28.824a3.424,3.424,0,0,1,.449-3.41A1.837,1.837,0,0,0,65.809,23a4.773,4.773,0,0,0-3.92.793c-1.37.919-3.2,5.139-3.563,6.364-.205.686-2,8.025-2,8.025l13.02.051L63.862,58.268H57.4L61.709,41.6H55.148l-10.362,39.2C56.31,81.864,81.641,85.558,112.56,66.425Z" transform="translate(-10.452 -9.63)" fill="url(#radial-gradient)"/>
          <path id="Path_141" data-name="Path 141" d="M95.2,49.5l-.9,3.451,9.3-.025s-6.971,7.054-7.586,7.463-5.048,5.188-5.2,9.325l16.991.131.968-4.217-10.4.051c3.178-4.5,6.2-6.6,8.765-9.279,1.889-1.978,3.2-2.735,4.691-6.9Z" transform="translate(-33.277 -20.955)" fill="#fff"/>
          <path id="Path_142" data-name="Path 142" d="M149.954,49.345l-5.3,20.321h6.612s2.717-11.017,4.023-13.062a11.293,11.293,0,0,1,2.564-3.169c3.349-1.761,3.058,1.005,3.058,1.005a3.132,3.132,0,0,0,2.751,1.891c2.661.16,3.622-3.868,2.426-5.47-1.534-2.055-3.708-1.874-5.262-1.517-2.318.534-5.349,4.055-5.349,4.055l1.009-3.987Z" transform="translate(-48.567 -20.847)" fill="#fff"/>
          <path id="Path_143" data-name="Path 143" d="M50.288,41.885c-1.486-4.856-9.227-5.317-9.227-5.317l-10.175-.123L22.762,65.886h6.766l2.461-9.61a45.359,45.359,0,0,0,6.15-.255c6.626-.906,9.138-3.65,9.138-3.65C48.34,51.163,51.775,46.741,50.288,41.885Zm-8.321,7.438a6.919,6.919,0,0,1-4.443,3,14.954,14.954,0,0,1-4.375.308l3.559-13.154h2.738c2.025.238,3.819.978,4.366,3.032C44.252,44.16,42.548,48.574,41.967,49.323Z" transform="translate(-13.948 -17.246)" fill="#fff"/>
          <path id="Path_144" data-name="Path 144" d="M131.017,65.656a5.956,5.956,0,0,1-4.511.46c-1.9-1.122-2.251-2.061-2.409-2.556a4.33,4.33,0,0,1,.052-2.218,21.158,21.158,0,0,0,6.176-.644c3.333-.767,7.78-2.889,7.766-7.644,0-.843-1.691-6.339-11.078-3.272a13.972,13.972,0,0,0-8.913,9.466c-1.205,3.765-.136,10.573,7.082,10.982a13.88,13.88,0,0,0,11.192-4.421l-2-2.634A29.02,29.02,0,0,1,131.017,65.656Zm-1.265-13.284c1.725-.557,3.383-.22,3.144,1.3a5.231,5.231,0,0,1-2.324,3.408,9.5,9.5,0,0,1-6.014,1.721A7.534,7.534,0,0,1,129.752,52.372Z" transform="translate(-40.906 -20.772)" fill="#fff"/>
        </g>
      </g>
    </g>
  </g>
</svg>
