<?xml version="1.0" encoding="utf-8"?>
<!-- Generator: Adobe Illustrator 24.3.0, SVG Export Plug-In . SVG Version: 6.00 Build 0)  -->
<svg version="1.1" id="Layer_1" xmlns="http://www.w3.org/2000/svg" xmlns:xlink="http://www.w3.org/1999/xlink" x="0px" y="0px"
	 viewBox="0 0 169 169" style="enable-background:new 0 0 169 169;" xml:space="preserve">
<style type="text/css">
	.st0{fill:none;}
	.st1{fill:#D71921;}
	.st2{fill:#FFFFFF;}
</style>
<g>
	<rect class="st0" width="169" height="169"/>
	<g>
		<path d="M119.9,129.4l2.2-5.8l2.2,5.8H119.9z M124.3,120.3h-4.6l-6.4,15.6h4l1.5-3.8h6.5l1.5,3.8h3.9L124.3,120.3z M92.2,133.2
			c-2.6,0-4.7-2.3-4.7-5.2c0-2.9,2.1-5.2,4.7-5.2s4.7,2.3,4.7,5.2C96.8,130.9,94.7,133.2,92.2,133.2 M92.2,119.8
			c-4.6,0-8.2,3.7-8.2,8.2c0,4.6,3.7,8.2,8.2,8.2c4.6,0,8.2-3.7,8.2-8.2C100.4,123.5,96.7,119.8,92.2,119.8 M59.6,133.2
			c-2.6,0-4.7-2.3-4.7-5.2c0-2.9,2.1-5.2,4.7-5.2c2.6,0,4.7,2.3,4.7,5.2C64.3,130.9,62.2,133.2,59.6,133.2 M59.6,119.8
			c-4.6,0-8.2,3.7-8.2,8.2c0,4.6,3.7,8.2,8.2,8.2c4.6,0,8.2-3.7,8.2-8.2C67.9,123.5,64.2,119.8,59.6,119.8 M80,120.3l-4,6.3l-4-6.3
			h-4l6.3,9.8v5.8h3.5v-5.8l6.3-9.8H80z M114.2,120.3h-13.4v3h4.9V136h3.5v-12.6h4.9L114.2,120.3L114.2,120.3z M37.3,123.3h4.9V136
			h3.5v-12.6h4.9v-3H37.3V123.3z"/>
		<g>
			<rect x="49.1" y="32.7" class="st1" width="69.9" height="69.9"/>
			<path class="st2" d="M84,51.8c-13.2,0-23.3,6.8-23.3,15.9c0,8.8,9.8,15.9,23.3,15.9s23.3-7.1,23.3-15.9
				C107.3,58.6,97.2,51.8,84,51.8 M98.5,58.6c0.5,2-1.8,4.4-9.1,5.2c-0.5-5-2-9.2-4.4-10.1c3.3,0.1,6.4,0.7,9.1,1.6
				C96.7,56.3,98.3,57.5,98.5,58.6 M87.7,67.6c0,6.3-1.9,8.9-3.7,8.9s-3.7-2.6-3.7-8.9c0,0,0,0,0-0.1c1.2,0.1,2.4,0.2,3.7,0.2
				C85.3,67.7,86.5,67.6,87.7,67.6C87.7,67.5,87.7,67.5,87.7,67.6 M84,64.1c-1.2,0-2.4,0-3.4-0.1c0.6-4.1,2-6.5,3.4-6.5
				s2.9,2.4,3.4,6.5C86.4,64,85.2,64.1,84,64.1 M69.5,58.6c0.3-1,1.8-2.3,4.4-3.2c2.7-1,5.9-1.6,9.2-1.7c-2.4,0.9-3.9,5.1-4.4,10.1
				C71.3,63,69,60.5,69.5,58.6 M64.1,67.1c0-2.7,0.9-5,2.5-6.9c0.2,3.5,5,6.2,11.8,7.1c0,0.1,0,0.2,0,0.3c0,8.5,2.2,13.1,4.6,14
				C72.6,81.2,64.1,74.8,64.1,67.1 M84.9,81.6c2.4-1,4.7-5.8,4.7-14c0-0.1,0-0.2,0-0.3c6.8-0.9,11.6-3.6,11.8-7.1
				c1.6,1.9,2.5,4.2,2.5,6.9C103.9,74.8,95.4,81.2,84.9,81.6"/>
		</g>
	</g>
</g>
</svg>
